<svg width="18" height="16" viewBox="0 0 18 16" fill="none" xmlns="http://www.w3.org/2000/svg">
<path d="M17.0883 5.93336L17.0884 5.93337C17.2902 5.95031 17.4338 6.07357 17.4819 6.21025C17.5277 6.34138 17.4915 6.49367 17.359 6.60162C17.3589 6.60165 17.3589 6.60169 17.3588 6.60172L13.4312 9.79627L13.1863 9.99545L13.2613 10.3021L14.4193 15.0328C14.4193 15.0328 14.4193 15.0329 14.4193 15.0329C14.4517 15.1659 14.4016 15.3177 14.2542 15.4165L14.2538 15.4168C14.1001 15.5201 13.8879 15.5297 13.7218 15.4378C13.7218 15.4377 13.7217 15.4377 13.7217 15.4377L9.24208 12.9528L9.00003 12.8185L8.75797 12.9527L4.27741 15.4377L4.27727 15.4378C4.20266 15.4792 4.11686 15.501 4.0289 15.501C3.92587 15.501 3.82745 15.4715 3.7468 15.4171L3.74581 15.4165C3.59852 15.3177 3.54839 15.166 3.58066 15.0331C3.58068 15.033 3.5807 15.0329 3.58072 15.0328L4.7387 10.3021L4.81376 9.99545L4.56886 9.79627L0.641091 6.60165C0.641079 6.60164 0.641066 6.60163 0.641054 6.60162C0.508666 6.4939 0.472476 6.34133 0.517849 6.21115C0.566613 6.07388 0.710458 5.95066 0.912238 5.93332C0.912301 5.93331 0.912365 5.93331 0.912428 5.9333L6.10862 5.4958L6.3984 5.4714L6.52004 5.20726L8.57355 0.747817L8.57366 0.747569C8.63634 0.611259 8.79476 0.499032 9.00001 0.499032C9.2047 0.499032 9.36369 0.610841 9.4275 0.748248C9.42756 0.748387 9.42762 0.748526 9.42769 0.748666L11.4808 5.20726L11.6024 5.4714L11.8922 5.4958L17.0883 5.93336Z" stroke="#E6C13E" stroke-width="0.998064"/>
<path d="M8.12027 0.539087C8.27092 0.211457 8.61603 0 9.00001 0V13.3891L4.51944 15.8741C4.36797 15.9582 4.19836 16 4.0289 16C3.83169 16 3.63517 15.9437 3.4679 15.831C3.15671 15.6223 3.01113 15.2626 3.09587 14.9147L4.25398 10.1834L0.326172 6.98877C0.0380516 6.75438 -0.0714013 6.38357 0.0471155 6.04549C0.166319 5.70805 0.48891 5.4687 0.869867 5.43609L6.06675 4.99853L8.12027 0.539087Z" fill="#E6C13E"/>
</svg>
