<svg width="11" height="10" viewBox="0 0 11 10" fill="none" xmlns="http://www.w3.org/2000/svg">
    <path d="M10.9712 3.77843C10.8988 3.56714 10.7012 3.41754 10.4684 3.39756L7.29306 3.12408L6.03813 0.336929C5.94548 0.13216 5.73466 0 5.50001 0C5.26535 0 5.05445 0.13216 4.96239 0.336929L3.70746 3.12408L0.531585 3.39756C0.298778 3.41794 0.101639 3.56753 0.0287928 3.77843C-0.0436342 3.98973 0.0232538 4.22149 0.199328 4.36798L2.59966 6.36463L1.89192 9.32168C1.84014 9.53911 1.9291 9.76394 2.11927 9.89435C2.22149 9.96481 2.34159 10 2.4621 10C2.56567 10 2.66931 9.97389 2.76188 9.92134L5.50001 8.36822L8.23763 9.92134C8.43846 10.0352 8.69099 10.0248 8.88074 9.89435C9.07092 9.76394 9.15987 9.53911 9.10809 9.32168L8.40036 6.36463L10.8007 4.36798C10.9767 4.22149 11.0436 3.99021 10.9712 3.77843Z" fill="#E6C13E"/>
</svg>
