<svg width="11" height="10" viewBox="0 0 11 10" fill="none" xmlns="http://www.w3.org/2000/svg">
    <path d="M10.4257 3.89572L10.4255 3.89571L7.25015 3.62224L6.95767 3.59705L6.83714 3.32936L5.58259 0.543049C5.58257 0.542991 5.58254 0.542933 5.58251 0.542875C5.57504 0.526584 5.54883 0.5 5.50001 0.5C5.45067 0.5 5.42516 0.526957 5.41841 0.541961L5.4183 0.542208L4.16338 3.32936L4.04285 3.59705L3.75036 3.62224L0.575191 3.89565C0.575102 3.89566 0.575013 3.89567 0.574924 3.89567C0.528037 3.89988 0.506698 3.92717 0.501579 3.94115C0.499504 3.94754 0.499571 3.953 0.501205 3.95865C0.502934 3.96463 0.507421 3.97387 0.519078 3.98358C0.51909 3.98359 0.519102 3.9836 0.519114 3.98361L2.91941 5.98024L3.15823 6.1789L3.08592 6.48102L2.37832 9.43752C2.37831 9.43756 2.37829 9.43761 2.37828 9.43765C2.37671 9.44436 2.3772 9.45016 2.37964 9.45631C2.38216 9.46267 2.38813 9.47245 2.40204 9.48199L2.40304 9.48267C2.41816 9.4931 2.43842 9.5 2.4621 9.5C2.48195 9.5 2.50015 9.49497 2.51506 9.48651L2.51519 9.48643L5.25332 7.93331L5.50003 7.79337L5.74673 7.93333L8.48421 9.48637C8.5196 9.50643 8.5664 9.50369 8.59755 9.48228L8.59797 9.48199C8.61189 9.47245 8.61785 9.46267 8.62037 9.45631C8.62282 9.45014 8.62331 9.44432 8.62171 9.43758C8.62171 9.43756 8.6217 9.43754 8.6217 9.43752L7.91409 6.48102L7.84178 6.1789L8.08061 5.98024L10.4808 3.98369C10.4927 3.9738 10.4971 3.96452 10.4988 3.95871L10.4257 3.89572ZM10.4257 3.89572C10.4729 3.89978 10.4936 3.92741 10.4982 3.9404L10.4257 3.89572Z" stroke="#E6C13E"/>
</svg>
